<svg width="24" height="23" viewBox="0 0 24 23" fill="none" xmlns="http://www.w3.org/2000/svg">
<path fill-rule="evenodd" clip-rule="evenodd" d="M1 0C0.447715 0 0 0.447715 0 1C0 1.55228 0.447715 2 1 2H4.1802L5.01942 6.19612C5.01971 6.19758 5.02001 6.19904 5.0203 6.20049L6.69932 14.5856C6.83661 15.2759 7.21223 15.8959 7.76049 16.3373C8.30621 16.7766 8.98838 17.011 9.68865 17H19.3914C20.0916 17.011 20.7738 16.7766 21.3195 16.3373C21.868 15.8958 22.2437 15.2754 22.3809 14.5848L23.9823 6.18733C24.0381 5.89458 23.9605 5.59218 23.7705 5.36256C23.5805 5.13293 23.298 5 23 5H6.8198L5.98058 0.803884C5.8871 0.33646 5.47668 0 5 0H1ZM9 19C7.89543 19 7 19.8954 7 21C7 22.1046 7.89543 23 9 23C10.1046 23 11 22.1046 11 21C11 19.8954 10.1046 19 9 19ZM20 19C18.8954 19 18 19.8954 18 21C18 22.1046 18.8954 23 20 23C21.1046 23 22 22.1046 22 21C22 19.8954 21.1046 19 20 19Z" fill="#1B4B66"/>
</svg>
